<svg width="802" height="814" viewBox="0 0 802 814" fill="none" xmlns="http://www.w3.org/2000/svg">
<path d="M716.606 739.025C716.606 739.025 716.606 738.506 716.606 737.987C716.606 735.912 717.125 733.319 717.125 731.244C717.125 728.65 717.125 726.575 717.644 723.981C717.644 720.35 717.644 717.238 717.644 713.606C717.644 710.494 717.644 707.9 717.644 704.788C717.644 702.194 717.644 699.6 717.125 697.006C717.125 694.413 717.125 692.337 716.606 689.744C716.606 688.706 716.606 688.188 716.606 687.669C716.606 685.594 716.087 683.519 716.087 681.444C715.569 678.85 715.569 675.737 715.05 673.144C715.05 671.587 714.531 670.031 714.531 668.475C714.531 667.956 714.531 667.438 714.531 666.919C714.531 665.363 714.012 663.288 713.494 661.731C712.975 659.138 712.456 656.544 711.938 653.95C711.419 650.838 710.9 647.725 709.863 644.612C707.788 635.794 705.712 626.975 703.119 618.675C702.6 616.6 702.081 615.044 701.562 612.969C700.006 608.3 698.45 603.631 696.375 598.962C695.856 597.406 695.338 595.85 694.819 594.812C690.669 583.919 685.481 573.544 680.294 563.688C679.256 562.131 678.737 560.575 677.7 559.538C676.144 556.425 674.069 552.794 671.994 549.681C670.956 548.125 669.919 546.569 668.881 545.013C667.844 543.456 666.806 541.9 665.769 540.344C664.213 537.75 662.138 535.156 660.581 532.044C660.062 531.525 659.544 531.006 659.544 530.487C657.469 527.894 655.394 524.781 653.319 522.188C651.244 519.075 648.65 516.481 646.575 513.369C644.5 510.256 641.906 507.662 639.312 504.55C634.644 499.362 629.456 493.656 624.787 488.469C624.269 487.95 624.269 487.95 623.75 487.431C621.156 484.837 618.562 482.763 616.488 480.169C613.894 477.575 611.3 474.981 608.188 472.906C605.594 470.312 602.481 468.237 599.887 465.644C597.294 463.569 594.7 461.494 592.106 459.419C591.069 458.9 590.031 457.863 589.512 457.344C586.919 455.787 584.844 453.713 582.25 452.156C579.138 450.081 576.025 448.006 572.912 445.931C572.912 445.931 572.913 445.931 572.394 445.931C566.169 441.781 559.944 438.15 553.2 434.519C550.087 432.444 546.456 430.887 543.344 429.331C543.344 429.331 543.344 429.331 542.825 429.331C539.712 427.775 536.081 426.219 532.969 424.663V746.806H715.569C716.088 744.212 716.606 741.619 716.606 739.025ZM494.062 403.913C494.062 377.456 472.794 356.188 446.337 356.188H355.556C329.1 356.188 307.831 377.456 307.831 403.913V746.806H494.062V403.913ZM724.906 756.144H69.725C54.1625 756.144 41.1937 769.112 41.1937 784.675V785.194C41.1937 800.756 54.1625 813.725 69.725 813.725H724.906C740.469 813.725 753.438 801.275 753.438 785.194V784.675C753.438 769.112 740.987 756.144 724.906 756.144ZM77.5062 731.763C77.5062 733.838 77.5063 736.431 78.025 738.506C78.025 739.025 78.025 739.025 78.025 739.544C78.025 742.138 78.5437 744.731 78.5437 746.806H261.144V424.663C258.031 426.219 254.4 427.775 251.287 429.331C251.287 429.331 251.288 429.331 250.769 429.331C247.656 430.887 244.025 432.962 240.912 434.519C234.169 438.15 227.944 441.781 221.719 445.931C218.606 448.006 215.494 450.081 212.381 452.156C209.787 453.713 207.713 455.787 205.119 457.344C204.081 458.381 203.044 458.9 202.006 459.419C199.412 461.494 196.819 463.569 194.225 465.644C191.631 468.237 188.519 470.312 185.925 472.906C183.331 475.5 180.219 477.575 177.625 480.169C175.031 482.763 172.438 484.837 170.363 487.431C169.844 487.95 169.844 487.95 169.325 488.469C164.137 493.656 159.469 498.844 154.8 504.55C152.206 507.144 150.131 510.256 147.537 513.369C144.944 516.481 142.869 519.075 140.794 522.188C138.719 524.781 136.644 527.894 134.569 530.487C134.05 531.006 134.05 531.525 133.531 532.044C131.456 534.638 129.9 537.231 127.825 540.344C126.787 541.9 125.75 543.456 124.713 545.013C123.675 546.569 122.637 548.125 121.6 549.681C119.525 552.794 117.969 555.906 115.894 559.538C114.856 561.094 114.338 562.65 113.3 563.688C108.113 573.544 102.925 584.438 98.775 594.812C98.2563 596.369 97.7375 597.406 97.2187 598.962C95.6625 603.631 93.5875 608.3 92.0312 612.969C91.5125 614.525 90.9937 616.6 90.475 618.675C87.8812 626.975 85.2875 635.794 83.7312 644.612C83.2125 647.725 82.175 650.838 81.6562 653.95C81.1375 656.544 80.6187 659.138 80.1 661.731C79.5812 663.288 79.5812 665.363 79.0625 666.919C79.0625 667.438 79.0625 667.956 79.0625 668.475C78.5437 670.031 78.5437 671.587 78.5437 673.144C78.025 675.737 78.025 678.85 77.5062 681.444C77.5062 683.519 76.9875 685.594 76.9875 687.669C76.9875 688.188 76.9875 689.225 76.9875 689.744C76.9875 692.337 76.4687 694.413 76.4687 697.006C76.4687 699.6 76.4687 702.194 75.95 704.788C75.95 707.9 75.95 710.494 75.95 713.606C75.95 717.238 75.95 720.35 75.95 723.981C77.5062 727.094 77.5062 729.688 77.5062 731.763Z" fill="url(#paint0_linear_286_22)"/>
<path d="M736.837 453.194H673.031V421.031H640.869V482.763V485.875H643.462H672.512V518.038H704.675V580.806V582.881H705.712H769V518.556H736.837V486.394H769V518.556H801.163V486.394V454.231H769V422.069H736.837V453.194ZM384.606 339.069H416.769V324.025H384.606V339.069ZM576.544 421.031H608.706V388.869H576.544V421.031ZM576.544 429.85V421.031H561.5C566.687 423.625 571.875 426.738 576.544 429.85ZM224.831 259.181H192.669V291.344H224.831V259.181ZM32.8937 421.031H0.731201V485.875V550.719H32.8937V485.875H65.0562V453.712H32.8937V421.031ZM352.962 324.025V291.862H320.8V324.025H352.962ZM224.831 427.775C228.981 425.181 232.612 423.106 236.762 420.513H224.831V427.775ZM224.831 227.019V194.856V0.84375H161.025H1.24994V194.856V227.019H161.025H224.831ZM32.8937 33.0063H161.025H193.187V194.337H161.025H32.8937V33.0063ZM65.0562 743.694H69.7249C68.6874 732.8 68.1687 721.388 68.1687 709.975C68.1687 706.344 68.1687 702.712 68.1687 699.081C68.1687 698.044 68.1687 697.006 68.1687 695.969C68.1687 692.856 68.6874 689.744 68.6874 686.631C68.6874 686.113 68.6874 685.594 68.6874 685.075C68.6874 681.444 69.2062 677.812 69.7249 674.181C69.7249 673.144 69.7249 672.625 69.7249 671.587C70.2437 668.475 70.7624 665.362 70.7624 662.769C70.7624 662.25 70.7624 661.213 70.7624 660.694C71.2812 657.063 71.7999 653.431 72.3187 650.319C72.3187 649.8 72.8375 648.762 72.8375 648.244C72.8375 647.725 72.8375 647.725 72.8375 647.206H64.0187V743.694H65.0562ZM65.0562 550.2H109.15C115.375 538.788 122.119 528.413 129.381 518.038H65.0562V550.2ZM576.544 0.84375V194.856V227.019H800.644V194.856V0.84375H576.544ZM768.481 194.856H608.706V33.5249H768.481V194.856ZM161.025 65.6875H65.0562V162.694H161.025V65.6875ZM0.731201 808.538H45.3437C37.0437 803.35 30.8187 794.012 30.8187 783.119V782.6C30.8187 779.488 31.3374 776.375 32.3749 773.263V614.525H81.1374C81.1374 614.006 81.1374 614.006 81.6562 613.487C83.7312 606.225 86.3249 599.481 88.9187 592.737C88.9187 592.219 89.4374 591.7 89.4374 591.181C90.4749 588.069 92.0312 584.956 93.0687 581.844H0.731201V808.538ZM672.512 522.188V518.038H669.4C670.437 519.075 671.475 520.631 672.512 522.188ZM736.837 711.531H731.131C731.131 725.537 730.094 739.544 728.019 753.031H739.431C753.437 753.031 765.369 762.888 767.962 775.856H769V808.019H801.163V678.85H737.356V711.531H736.837ZM800.644 646.688V581.844H768.481V646.688H800.644ZM448.931 259.181V227.019H416.769V194.856H384.606V291.862H416.769V259.7H448.931V259.181ZM288.637 194.856H256.475V259.181H288.637V291.344H320.8V226.5H288.637V194.856ZM320.8 162.175H288.637V194.337H320.8V162.175ZM512.737 130.013V194.856V227.019H544.9V194.856V33.5249H512.737V65.6875H480.575V130.531H512.737V130.013ZM608.706 259.181H576.544V291.344H608.706V259.181ZM448.931 194.856V227.019H481.094V194.856V130.013H448.931V194.856ZM416.769 162.175V130.013H384.606V65.6875H416.769V130.531H448.931V65.6875H481.094V33.5249H385.125V1.36237H256.994V33.5249H352.962V98.3687H320.8V162.694H352.962V194.856H385.125V162.694H416.769V162.175ZM320.8 227.019H352.962V194.856H320.8V227.019ZM512.737 259.181H448.931V291.344H416.769V323.506H480.575V349.444C491.987 358.263 498.731 372.269 498.731 387.831V393.019C503.4 394.575 508.069 396.131 512.219 397.688V356.188H544.381V324.025H512.219V259.181H512.737ZM544.9 291.344V323.506H577.062V291.344H544.9ZM736.837 65.6875H640.869V162.694H736.837V65.6875ZM161.025 453.194H128.862V388.35H65.0562V453.194H97.2187V485.356H155.837H161.025V479.65C170.881 469.275 181.775 459.419 193.187 450.6V421.031H161.025V453.194ZM288.637 65.6875V97.8501H320.8V65.6875H288.637ZM32.8937 356.188V324.025H65.0562V356.188H97.2187V291.344H65.0562V259.181H1.24994V388.35H65.0562V356.188H32.8937ZM128.862 356.188H161.025V324.025H193.187V291.862H161.025V259.7H97.2187V291.862H129.381V356.188H128.862ZM768.481 291.344H800.644V259.181H768.481V291.344ZM256.994 291.344H224.831V323.506H192.669V355.669H224.831V387.831H256.994V409.619C273.075 401.837 289.675 395.612 306.794 390.425V387.312H289.156V356.188H318.725H320.8V353.594V323.506H256.994V291.344ZM608.706 324.025H576.544V356.188H608.706V388.35H640.869V323.506H673.031V388.35H769V420.513H801.163V323.506H769V355.669H705.194V323.506H769V291.344H609.225V324.025H608.706ZM192.669 388.35V420.513H224.831V388.35H192.669ZM256.994 421.031V410.656C250.25 413.769 243.506 417.4 237.281 421.031H256.994Z" fill="#F4F4F4"/>
<defs>
<linearGradient id="paint0_linear_286_22" x1="41.2996" y1="584.997" x2="753.543" y2="584.997" gradientUnits="userSpaceOnUse">
<stop stop-color="#E94E1B"/>
<stop offset="0.5213" stop-color="#E6332A"/>
<stop offset="1" stop-color="#D60B52"/>
</linearGradient>
</defs>
</svg>
