<svg width="801" height="814" viewBox="0 0 801 814" fill="none" xmlns="http://www.w3.org/2000/svg">
<path d="M715.9 738.881C715.9 738.881 715.9 738.363 715.9 737.844C715.9 735.769 716.419 733.175 716.419 731.1C716.419 728.506 716.419 726.431 716.938 723.837C716.938 720.206 716.938 717.094 716.938 713.462C716.938 710.35 716.938 707.756 716.938 704.644C716.938 702.05 716.938 699.456 716.419 696.862C716.419 694.269 716.419 692.194 715.9 689.6C715.9 688.563 715.9 688.044 715.9 687.525C715.9 685.45 715.381 683.375 715.381 681.3C714.863 678.706 714.862 675.594 714.344 673C714.344 671.444 713.825 669.887 713.825 668.331C713.825 667.812 713.825 667.294 713.825 666.775C713.825 665.219 713.306 663.144 712.788 661.587C712.269 658.994 711.75 656.4 711.231 653.806C710.713 650.694 710.194 647.581 709.156 644.469C707.081 635.65 705.006 626.831 702.413 618.531C701.894 616.456 701.375 614.9 700.856 612.825C699.3 608.156 697.744 603.488 695.669 598.819C695.15 597.263 694.631 595.706 694.112 594.669C689.962 583.775 684.775 573.4 679.587 563.544C678.55 561.988 678.031 560.431 676.994 559.394C675.437 556.281 673.363 552.65 671.288 549.538C670.25 547.981 669.212 546.425 668.175 544.869C667.137 543.312 666.1 541.756 665.063 540.2C663.506 537.606 661.431 535.013 659.875 531.9C659.356 531.381 658.837 530.863 658.837 530.344C656.762 527.75 654.687 524.638 652.612 522.044C650.537 518.931 647.944 516.338 645.869 513.225C643.794 510.113 641.2 507.519 638.606 504.406C633.938 499.219 628.75 493.513 624.081 488.325C623.562 487.806 623.563 487.806 623.044 487.288C620.45 484.694 617.856 482.619 615.781 480.025C613.188 477.431 610.594 474.838 607.481 472.763C604.888 470.169 601.775 468.094 599.181 465.5C596.587 463.425 593.994 461.35 591.4 459.275C590.362 458.756 589.325 457.719 588.806 457.2C586.212 455.644 584.138 453.569 581.544 452.013C578.431 449.938 575.319 447.863 572.206 445.788C572.206 445.788 572.206 445.788 571.688 445.788C565.462 441.638 559.237 438.006 552.494 434.375C549.381 432.3 545.75 430.744 542.638 429.188C542.638 429.188 542.637 429.188 542.119 429.188C539.006 427.631 535.375 426.075 532.263 424.519V746.663H714.862C715.9 744.069 715.9 741.475 715.9 738.881ZM493.356 403.769C493.356 377.312 472.088 356.044 445.631 356.044H354.85C328.394 356.044 307.125 377.312 307.125 403.769V746.663H492.837V403.769H493.356ZM724.719 756H69.0186C53.4561 756 40.4874 768.969 40.4874 784.531V785.05C40.4874 800.612 53.4561 813.581 69.0186 813.581H724.2C739.763 813.581 752.731 801.131 752.731 785.05V784.531C752.731 768.969 740.281 756 724.719 756ZM76.7999 731.619C76.7999 733.694 76.8001 736.287 77.3188 738.362C77.3188 738.881 77.3188 738.881 77.3188 739.4C77.3188 741.994 77.8374 744.588 77.8374 746.663H260.438V424C257.325 425.556 253.694 427.113 250.581 428.669C250.581 428.669 250.581 428.669 250.063 428.669C246.95 430.225 243.319 432.3 240.206 433.856C233.462 437.488 227.238 441.119 221.013 445.269C217.9 447.344 214.787 449.419 211.675 451.494C209.081 453.05 207.006 455.125 204.413 456.681C203.375 457.719 202.337 458.238 201.3 458.756C198.706 460.831 196.112 462.906 193.519 464.981C190.925 467.575 187.813 469.65 185.219 472.244C182.625 474.838 179.513 476.913 176.919 479.506C174.325 482.1 171.731 484.175 169.656 486.769C169.138 487.287 169.137 487.288 168.619 487.806C163.431 492.994 158.762 498.181 154.094 503.888C151.5 506.481 149.425 509.594 146.831 512.706C144.237 515.819 142.162 518.413 140.087 521.525C138.012 524.119 135.937 527.231 133.862 529.825C133.344 530.344 133.344 530.863 132.825 531.381C130.75 533.975 129.194 536.569 127.119 539.681C126.081 541.238 125.044 542.794 124.006 544.35C122.969 545.906 121.931 547.462 120.894 549.019C118.819 552.131 117.262 555.244 115.188 558.875C114.15 560.431 113.631 561.988 112.594 563.025C107.406 572.881 102.219 583.775 98.0688 594.15C97.5501 595.706 97.0314 596.744 96.5126 598.3C94.9564 602.969 92.8814 607.638 91.3251 612.306C90.8064 613.863 90.2874 615.938 89.7686 618.013C87.1749 626.313 84.5812 635.131 83.0249 643.95C82.5062 647.063 81.4689 650.175 80.9501 653.288C80.4314 655.881 79.9124 658.475 79.3936 661.069C78.8749 662.625 78.8751 664.7 78.3564 666.256C78.3564 666.775 78.3564 667.294 78.3564 667.813C77.8376 669.369 77.8374 670.925 77.8374 672.481C77.3187 675.075 77.3186 678.188 76.7999 680.781C76.7999 682.856 76.2812 684.931 76.2812 687.006C76.2812 687.525 76.2812 688.562 76.2812 689.081C76.2812 691.675 75.7626 693.75 75.7626 696.344C75.7626 698.938 75.7624 701.531 75.2437 704.125C75.2437 707.238 75.2437 709.831 75.2437 712.944C75.2437 716.575 75.2437 719.688 75.2437 723.319C76.7999 726.95 76.7999 729.544 76.7999 731.619Z" fill="url(#paint0_linear_286_26)"/>
<path d="M736.131 453.05H672.325V420.888H640.163V482.619V485.731H642.756H671.806V517.894H703.969V580.663V582.737H705.006H768.294V517.375H736.131V485.212H768.294V517.375H800.456V485.212V453.05H768.294V420.888H736.131V453.05ZM384.419 338.925H416.581V323.881H384.419V338.925ZM575.837 420.888H608V388.725H575.837V420.888ZM575.837 429.706V420.888H561.312C566.5 423.481 571.169 426.594 575.837 429.706ZM224.125 259.038H191.962V291.2H224.125V259.038ZM32.1875 420.888H0.0249023V485.731V550.575H32.1875V485.731H64.35V453.569H32.1875V420.888ZM352.256 323.881V291.719H320.094V323.881H352.256ZM224.125 427.631C228.275 425.038 231.906 422.962 236.056 420.369H224.125V427.631ZM224.125 226.875V194.713V0.700195H160.319H0.543842V194.713V226.875H160.319H224.125ZM32.1875 32.8624H160.319H192.481V194.194H160.319H32.1875V32.8624ZM64.35 743.55H69.0186C67.9811 732.656 67.4624 721.244 67.4624 709.831C67.4624 706.2 67.4624 702.569 67.4624 698.938C67.4624 697.9 67.4624 696.863 67.4624 695.825C67.4624 692.713 67.9813 689.6 67.9813 686.487C67.9813 685.969 67.9813 685.45 67.9813 684.931C67.9813 681.3 68.4998 677.669 69.0186 674.038C69.0186 673 69.0186 672.481 69.0186 671.444C69.5373 668.331 70.0562 665.219 70.0562 662.625C70.0562 662.106 70.0562 661.069 70.0562 660.55C70.5749 656.919 71.0936 653.287 71.6123 650.175C71.6123 649.656 72.1313 648.619 72.1313 648.1C72.1313 647.581 72.1313 647.581 72.1313 647.063H63.3125V743.55H64.35ZM64.35 550.056H108.444C114.669 538.644 121.412 528.269 128.675 517.894H64.35V550.056ZM575.837 0.700195V194.713V226.875H799.937V194.713V0.700195H575.837ZM767.775 194.713H608V33.3814H767.775V194.713ZM160.319 65.5439H64.35V162.55H160.319V65.5439ZM0.543842 808.394H45.1562C36.8562 803.206 30.6313 793.869 30.6313 782.975V782.456C30.6313 779.344 31.15 776.231 32.1875 773.119V614.381H80.9501C80.9501 613.863 80.95 613.863 81.4687 613.344C83.5437 606.081 86.1376 599.338 88.7313 592.594C88.7313 592.075 89.25 591.556 89.25 591.038C90.2875 587.925 91.8438 584.813 92.8813 581.7H0.543842V808.394ZM671.806 522.044V517.375H668.694C670.25 518.931 671.287 520.488 671.806 522.044ZM736.131 711.388H730.425C730.425 725.394 729.387 739.4 727.312 752.888H738.725C752.731 752.888 764.663 762.744 767.256 775.713H768.294V807.875H800.456V678.706H736.65V711.388H736.131ZM799.937 646.544V581.7H767.775V646.544H799.937ZM448.225 259.038V226.875H416.062V194.713H383.9V291.719H416.062V259.556H448.225V259.038ZM288.45 194.713H256.288V259.038H288.45V291.2H320.612V226.875H288.45V194.713ZM320.094 162.031H287.931V194.194H320.094V162.031ZM512.031 129.869V194.713V226.875H544.194V194.713V33.3814H512.031V65.5439H479.869V130.388H512.031V129.869ZM608 259.038H575.837V291.2H608V259.038ZM448.225 194.713V226.875H480.388V194.713V129.869H448.225V194.713ZM416.062 162.031V129.869H383.9V65.025H416.062V129.869H448.225V65.025H480.388V32.8624H384.419V0.700195H256.288V32.8624H352.256V97.7062H320.094V162.031H352.256V194.194H384.419V162.031H416.062ZM320.094 226.875H352.256V194.713H320.094V226.875ZM512.031 259.038H448.225V291.2H416.062V323.362H479.869V349.3C491.281 358.119 498.025 372.125 498.025 387.688V392.875C502.694 394.431 507.363 395.988 511.513 397.544V355.525H543.675V323.362H511.513V259.038H512.031ZM544.194 291.2V323.362H576.356V291.2H544.194ZM736.131 65.5439H640.163V162.55H736.131V65.5439ZM160.319 453.05H128.156V388.206H64.35V453.05H96.5126V485.212H155.131H160.319V479.506C170.175 469.131 181.069 459.275 192.481 450.456V420.888H160.319V453.05ZM288.45 65.5439V97.7062H320.612V65.5439H288.45ZM32.1875 356.044V323.881H64.35V356.044H96.5126V291.2H64.35V259.038H0.543842V388.206H64.35V356.044H32.1875ZM128.156 356.044H160.319V323.881H192.481V291.719H160.319V259.556H96.5126V291.719H128.675V356.044H128.156ZM767.775 291.2H799.937V259.038H767.775V291.2ZM256.288 291.2H224.125V323.362H191.962V355.525H224.125V387.688H256.288V409.475C272.369 401.694 288.969 395.469 306.087 390.281V387.169H288.45V355.006H318.019H320.094V352.413V322.325H256.288V291.2ZM608 323.881H575.837V356.044H608V388.206H640.163V323.362H672.325V388.206H768.294V420.369H800.456V323.362H768.294V355.525H704.487V323.362H768.294V291.2H608V323.881ZM192.481 388.206V420.369H224.644V388.206H192.481ZM256.288 420.888V410.513C249.544 413.625 242.8 417.256 236.575 420.888H256.288Z" fill="#191919"/>
<defs>
<linearGradient id="paint0_linear_286_26" x1="40.6487" y1="584.827" x2="752.893" y2="584.827" gradientUnits="userSpaceOnUse">
<stop stop-color="#E94E1B"/>
<stop offset="0.5213" stop-color="#E6332A"/>
<stop offset="1" stop-color="#D60B52"/>
</linearGradient>
</defs>
</svg>
