<svg width="2948" height="814" viewBox="0 0 2948 814" fill="none" xmlns="http://www.w3.org/2000/svg">
<path d="M716.662 738.831C716.662 738.831 716.662 738.312 716.662 737.794C716.662 735.719 717.181 733.125 717.181 731.05C717.181 728.456 717.181 726.381 717.7 723.787C717.7 720.156 717.7 717.044 717.7 713.412C717.7 710.3 717.7 707.706 717.7 704.594C717.7 702 717.7 699.406 717.181 696.812C717.181 694.219 717.181 692.144 716.662 689.55C716.662 688.512 716.662 687.994 716.662 687.475C716.662 685.4 716.144 683.325 716.144 681.25C715.625 678.656 715.625 675.544 715.106 672.95C715.106 671.394 714.588 669.837 714.588 668.281C714.588 667.762 714.588 667.244 714.588 666.725C714.588 665.169 714.069 663.094 713.55 661.537C713.031 658.944 712.513 656.35 711.994 653.756C711.475 650.644 710.956 647.531 709.919 644.419C707.844 635.6 705.769 626.781 703.175 618.481C702.656 616.406 702.138 614.85 701.619 612.775C700.062 608.106 698.506 603.437 696.431 598.769C695.913 597.212 695.394 595.656 694.875 594.619C690.725 583.725 685.537 573.35 680.35 563.494C679.312 561.937 678.794 560.381 677.756 559.344C676.2 556.231 674.125 552.6 672.05 549.487C671.013 547.931 669.975 546.375 668.938 544.819C667.9 543.262 666.862 541.706 665.825 540.15C664.269 537.556 662.194 534.962 660.637 531.85C660.119 531.331 659.6 530.812 659.6 530.294C657.525 527.7 655.45 524.587 653.375 521.994C651.3 518.881 648.706 516.287 646.631 513.175C644.556 510.062 641.963 507.469 639.369 504.356C634.7 499.169 629.513 493.462 624.844 488.275C624.325 487.756 624.325 487.756 623.806 487.237C621.213 484.644 618.619 482.569 616.544 479.975C613.95 477.381 611.356 474.787 608.244 472.712C605.65 470.119 602.537 468.044 599.944 465.45C597.35 463.375 594.756 461.3 592.162 459.225C591.125 458.706 590.087 457.669 589.569 457.15C586.975 455.594 584.9 453.519 582.306 451.962C579.194 449.887 576.081 447.812 572.969 445.737C572.969 445.737 572.969 445.737 572.45 445.737C566.225 441.587 560 437.956 553.256 434.325C550.144 432.25 546.513 430.694 543.4 429.137C543.4 429.137 543.4 429.137 542.881 429.137C539.769 427.581 536.138 426.025 533.025 424.469V746.612H715.625C716.662 744.019 716.662 741.425 716.662 738.831ZM494.119 403.719C494.119 377.262 472.85 355.994 446.394 355.994H355.613C329.156 355.994 307.887 377.262 307.887 403.719V746.612H493.6V403.719H494.119ZM725.481 755.95H69.7812C54.2188 755.95 41.25 768.919 41.25 784.481V785C41.25 800.562 54.2188 813.531 69.7812 813.531H724.963C740.525 813.531 753.494 801.081 753.494 785V784.481C753.494 768.919 741.044 755.95 725.481 755.95ZM77.5625 731.569C77.5625 733.644 77.5625 736.237 78.0813 738.312C78.0813 738.831 78.0813 738.831 78.0813 739.35C78.0813 741.944 78.6 744.537 78.6 746.612H261.2V424.469C258.087 426.025 254.456 427.581 251.344 429.137C251.344 429.137 251.344 429.137 250.825 429.137C247.712 430.694 244.081 432.769 240.969 434.325C234.225 437.956 228 441.587 221.775 445.737C218.663 447.812 215.55 449.887 212.438 451.962C209.844 453.519 207.769 455.594 205.175 457.15C204.138 458.187 203.1 458.706 202.062 459.225C199.469 461.3 196.875 463.375 194.281 465.45C191.688 468.044 188.575 470.119 185.981 472.712C183.387 475.306 180.275 477.381 177.681 479.975C175.088 482.569 172.494 484.644 170.419 487.237C169.9 487.756 169.9 487.756 169.381 488.275C164.194 493.462 159.525 498.65 154.856 504.356C152.262 506.95 150.188 510.062 147.594 513.175C145 516.287 142.925 518.881 140.85 521.994C138.775 524.587 136.7 527.7 134.625 530.294C134.106 530.812 134.106 531.331 133.588 531.85C131.513 534.444 129.956 537.037 127.881 540.15C126.844 541.706 125.806 543.262 124.769 544.819C123.731 546.375 122.694 547.931 121.656 549.487C119.581 552.6 118.025 555.712 115.95 559.344C114.912 560.9 114.394 562.456 113.356 563.494C108.169 573.35 102.981 584.244 98.8313 594.619C98.3125 596.175 97.7938 597.212 97.275 598.769C95.7188 603.437 93.6438 608.106 92.0875 612.775C91.5688 614.331 91.05 616.406 90.5312 618.481C87.9375 626.781 85.3437 635.6 83.7875 644.419C83.2687 647.531 82.2313 650.644 81.7125 653.756C81.1938 656.35 80.675 658.944 80.1562 661.537C79.6375 663.094 79.6375 665.169 79.1188 666.725C79.1188 667.244 79.1188 667.762 79.1188 668.281C78.6 669.837 78.6 671.394 78.6 672.95C78.0812 675.544 78.0812 678.656 77.5625 681.25C77.5625 683.325 77.0437 685.4 77.0437 687.475C77.0437 687.994 77.0437 689.031 77.0437 689.55C77.0437 692.144 76.525 694.219 76.525 696.812C76.525 699.406 76.525 702 76.0062 704.594C76.0062 707.706 76.0062 710.3 76.0062 713.412C76.0062 717.044 76.0062 720.156 76.0062 723.787C77.5625 726.9 77.5625 728.975 77.5625 731.569Z" fill="url(#paint0_linear_286_6)"/>
<path d="M736.894 453H673.088V420.837H640.925V482.569V485.681H643.519H672.569V517.844H704.731V580.612V582.687H705.769H769.056V518.362H736.894V486.2H769.056V518.362H801.219V486.2V453H769.056V420.837H736.894V453ZM385.181 338.875H417.344V323.831H385.181V338.875ZM576.6 420.319H608.763V388.156H576.6V420.319ZM576.6 429.137V420.319H561.556C567.263 423.431 571.931 426.544 576.6 429.137ZM224.888 258.987H192.725V291.15H224.888V258.987ZM32.9501 420.319H0.787598V485.162V550.006H32.9501V485.162H65.1126V453H32.9501V420.319ZM353.019 323.831V291.669H320.856V323.831H353.019ZM224.888 427.581C229.038 424.987 232.669 422.912 236.819 420.319H224.888V427.581ZM224.888 226.825V194.662V0.649902H161.081H1.30638V194.662V226.825H161.081H224.888ZM32.9501 32.8124H161.081H193.244V194.144H161.081H32.9501V32.8124ZM65.1126 743.5H69.7814C68.7439 732.606 68.2251 721.194 68.2251 709.781C68.2251 706.15 68.2251 702.519 68.2251 698.887C68.2251 697.85 68.2251 696.812 68.2251 695.775C68.2251 692.662 68.7439 689.55 68.7439 686.437C68.7439 685.919 68.7439 685.4 68.7439 684.881C68.7439 681.25 69.2626 677.619 69.7814 673.987C69.7814 672.95 69.7814 672.431 69.7814 671.394C70.3001 668.281 70.8188 665.169 70.8188 662.575C70.8188 662.056 70.8188 661.019 70.8188 660.5C71.3376 656.869 71.8564 653.237 72.3751 650.125C72.3751 649.606 72.8939 648.569 72.8939 648.05C72.8939 647.531 72.8939 647.531 72.8939 647.012H64.0751V743.5H65.1126ZM65.1126 550.006H109.206C115.431 538.594 122.175 528.219 129.438 517.844H65.1126V550.006ZM576.6 0.649902V194.662V226.825H800.7V194.662V0.649902H576.6ZM768.538 194.662H608.763V32.8124H768.538V194.662ZM161.081 65.4937H65.1126V162.5H161.081V65.4937ZM1.30638 808.344H45.9189C37.6189 803.156 31.3939 793.819 31.3939 782.925V782.406C31.3939 779.294 31.9126 776.181 32.9501 773.069V614.331H81.7126C81.7126 613.812 81.7126 613.812 82.2313 613.294C84.3063 606.031 86.9001 599.287 89.4939 592.544C89.4939 592.025 90.0126 591.506 90.0126 590.987C91.0501 587.875 92.6064 584.762 93.6439 581.65H1.30638V808.344ZM672.569 521.994V517.844H669.456C671.013 518.881 672.05 520.437 672.569 521.994ZM736.894 711.337H731.188C731.188 725.344 730.15 739.35 728.075 752.837H739.488C753.494 752.837 765.425 762.694 768.019 775.662H769.056V807.825H801.219V678.656H737.413V711.337H736.894ZM800.7 646.494V581.65H768.538V646.494H800.7ZM448.988 258.987V226.825H416.825V194.662H384.663V291.669H416.825V259.506H448.988V258.987ZM289.213 194.662H257.05V258.987H289.213V291.15H321.375V226.306H289.213V194.662ZM320.856 161.981H288.694V194.144H320.856V161.981ZM512.794 129.819V194.662V226.825H544.956V194.662V32.8124H512.794V64.9749H480.631V129.819H512.794ZM608.763 258.987H576.6V291.15H608.763V258.987ZM448.988 194.662V226.825H481.15V194.662V129.819H448.988V194.662ZM416.825 161.981V129.819H384.663V65.4937H416.825V130.337H448.988V65.4937H481.15V32.8124H385.181V0.649902H257.05V32.8124H353.019V97.6561H320.856V161.981H353.019V194.144H385.181V161.981H416.825ZM320.856 226.825H353.019V194.662H320.856V226.825ZM512.794 258.987H448.988V291.15H416.825V323.312H480.631V349.25C492.044 358.069 498.788 372.075 498.788 387.637V392.825C503.456 394.381 508.125 395.937 512.275 397.494V355.475H544.438V323.312H512.275V258.987H512.794ZM544.956 291.15V323.312H577.119V291.15H544.956ZM736.894 65.4937H640.925V162.5H736.894V65.4937ZM161.081 453H128.919V388.156H65.1126V453H97.2751V485.162H155.375H160.563V479.456C170.419 469.081 181.313 459.225 192.725 450.406V420.837H160.563V453H161.081ZM289.213 65.4937V97.6561H321.375V65.4937H289.213ZM32.9501 355.994V323.831H65.1126V355.994H97.2751V291.15H65.1126V258.987H1.30638V388.156H65.1126V355.994H32.9501ZM128.919 355.994H161.081V323.831H193.244V291.669H161.081V259.506H97.2751V291.669H129.438V355.994H128.919ZM768.538 291.15H800.7V258.987H768.538V291.15ZM257.05 291.15H224.888V323.312H192.725V355.475H224.888V387.637H257.05V409.425C273.131 401.644 289.731 395.419 306.85 390.231V387.119H289.213V354.956H318.781H320.856V352.362V322.275H257.05V291.15ZM608.763 323.831H576.6V355.994H608.763V388.156H640.925V323.312H673.088V388.156H769.056V420.319H801.219V323.312H769.056V355.475H705.25V323.312H769.056V291.15H609.281V323.831H608.763ZM193.244 388.156V420.319H225.406V388.156H193.244ZM257.05 420.319V409.944C250.306 413.056 243.563 416.687 237.338 420.319H257.05Z" fill="#F4F4F4"/>
<path d="M1058.52 152.125C996.269 152.125 945.431 175.469 945.431 238.237V515.769C945.431 559.863 970.85 585.281 1008.72 595.656V662.056H1109.36V595.656C1146.71 585.281 1172.64 559.863 1172.64 515.769V238.237C1172.64 175.469 1121.81 152.125 1058.52 152.125ZM1072.01 488.794C1072.01 495.537 1066.3 501.762 1059.04 501.762C1052.29 501.762 1046.59 495.537 1046.59 488.794V265.213C1046.59 258.469 1052.29 252.244 1059.04 252.244C1066.3 252.244 1072.01 258.469 1072.01 265.213V488.794ZM1425.28 354.438V237.719C1425.28 175.469 1374.44 158.35 1311.67 158.35H1198.58V595.656H1299.22V454.556H1311.67C1318.93 454.556 1324.64 460.263 1324.64 467.525V595.656H1425.28V454.037C1425.28 430.694 1411.79 408.388 1399.86 404.238C1411.79 399.569 1425.28 377.781 1425.28 354.438ZM1325.16 340.95C1325.16 347.694 1319.45 353.919 1312.19 353.919H1299.74V258.987H1312.19C1319.45 258.987 1325.16 264.694 1325.16 271.956V340.95Z" fill="url(#paint1_linear_286_6)"/>
<path d="M1564.82 158.35H1451.73V595.656H1564.82C1628.11 595.656 1678.43 578.538 1678.43 515.769V427.063C1678.43 403.2 1664.94 381.413 1653.01 377.263C1664.94 373.113 1678.43 350.806 1678.43 327.463V238.238C1678.43 175.469 1628.11 158.35 1564.82 158.35ZM1577.79 482.05C1577.79 489.313 1572.08 495.019 1564.82 495.019H1552.37V427.063H1564.82C1572.08 427.063 1577.79 433.288 1577.79 440.031V482.05ZM1577.79 313.975C1577.79 320.719 1572.08 326.944 1564.82 326.944H1552.37V258.988H1564.82C1572.08 258.988 1577.79 264.694 1577.79 271.956V313.975ZM1830.94 488.794C1830.94 495.538 1825.23 501.763 1817.97 501.763C1811.23 501.763 1805.52 495.538 1805.52 488.794V158.35H1704.88V515.769C1704.88 578.019 1755.72 601.881 1817.97 601.881C1881.26 601.881 1931.58 578.019 1931.58 515.769V158.35H1830.94V488.794ZM1957.51 595.656H2058.15V158.35H1957.51V595.656ZM2184.73 158.35H2084.09V595.656H2250.09V495.019H2184.73V158.35ZM2388.59 158.35H2275.51V595.656H2388.59C2451.88 595.656 2502.2 571.794 2502.2 509.544V244.463C2502.72 182.213 2451.88 158.35 2388.59 158.35ZM2402.08 482.05C2402.08 489.313 2396.38 495.019 2389.11 495.019H2376.66V258.988H2389.11C2396.38 258.988 2402.08 264.694 2402.08 271.956V482.05ZM2528.66 595.656H2694.66V495.019H2629.29V427.063H2694.66V326.944H2629.29V258.988H2694.66V158.35H2528.66V595.656ZM2947.29 354.438V237.719C2947.29 175.469 2896.45 158.35 2833.68 158.35H2720.59V595.656H2821.23V454.556H2833.68C2840.94 454.556 2846.65 460.263 2846.65 467.525V595.656H2947.29V454.038C2947.29 430.694 2933.8 408.388 2921.87 404.238C2933.28 399.569 2947.29 377.781 2947.29 354.438ZM2846.65 340.95C2846.65 347.694 2840.94 353.919 2833.68 353.919H2821.23V258.988H2833.68C2840.94 258.988 2846.65 264.694 2846.65 271.956V340.95Z" fill="#F4F4F4"/>
<defs>
<linearGradient id="paint0_linear_286_6" x1="41.4456" y1="584.734" x2="753.689" y2="584.734" gradientUnits="userSpaceOnUse">
<stop stop-color="#E94E1B"/>
<stop offset="0.5213" stop-color="#E6332A"/>
<stop offset="1" stop-color="#D60B52"/>
</linearGradient>
<linearGradient id="paint1_linear_286_6" x1="945.709" y1="407.088" x2="1425.48" y2="407.088" gradientUnits="userSpaceOnUse">
<stop stop-color="#E94E1B"/>
<stop offset="0.5213" stop-color="#E6332A"/>
<stop offset="1" stop-color="#D60B52"/>
</linearGradient>
</defs>
</svg>
