<svg width="2947" height="814" viewBox="0 0 2947 814" fill="none" xmlns="http://www.w3.org/2000/svg">
<path d="M716.038 739.156C716.038 739.156 716.038 738.637 716.038 738.118C716.038 736.043 716.556 733.45 716.556 731.375C716.556 728.781 716.556 726.706 717.075 724.112C717.075 720.481 717.075 717.369 717.075 713.737C717.075 710.625 717.075 708.031 717.075 704.918C717.075 702.325 717.075 699.731 716.556 697.137C716.556 694.543 716.556 692.469 716.038 689.875C716.038 688.837 716.038 688.319 716.038 687.8C716.038 685.725 715.519 683.65 715.519 681.575C715 678.981 715 675.868 714.481 673.275C714.481 671.718 713.963 670.162 713.963 668.606C713.963 668.087 713.963 667.569 713.963 667.05C713.963 665.494 713.444 663.419 712.925 661.862C712.406 659.269 711.888 656.675 711.369 654.081C710.85 650.969 710.331 647.856 709.294 644.743C707.219 635.925 705.144 627.106 702.55 618.806C702.031 616.731 701.513 615.175 700.994 613.1C699.438 608.431 697.881 603.762 695.806 599.094C695.288 597.537 694.769 595.981 694.25 594.944C690.1 584.05 684.913 573.675 679.725 563.819C678.688 562.262 678.169 560.706 677.131 559.668C675.575 556.556 673.5 552.925 671.425 549.812C670.388 548.256 669.35 546.7 668.313 545.144C667.275 543.587 666.238 542.031 665.2 540.475C663.644 537.881 661.569 535.287 660.013 532.175C659.494 531.656 658.975 531.137 658.975 530.618C656.9 528.025 654.825 524.912 652.75 522.319C650.675 519.206 648.081 516.612 646.006 513.5C643.931 510.387 641.338 507.793 638.744 504.681C634.075 499.493 628.888 493.787 624.219 488.6C623.7 488.081 623.7 488.081 623.181 487.562C620.588 484.969 617.994 482.894 615.919 480.3C613.325 477.706 610.731 475.112 607.619 473.037C605.025 470.444 601.913 468.368 599.319 465.775C596.725 463.7 594.131 461.625 591.538 459.55C590.5 459.031 589.463 457.994 588.944 457.475C586.35 455.919 584.275 453.844 581.681 452.287C578.569 450.212 575.456 448.137 572.344 446.062C572.344 446.062 572.344 446.062 571.825 446.062C565.6 441.912 559.375 438.281 552.631 434.65C549.519 432.575 545.888 431.018 542.775 429.462C542.775 429.462 542.775 429.462 542.256 429.462C539.144 427.906 535.513 426.35 532.4 424.793V746.937H715C715.519 744.344 716.038 741.75 716.038 739.156ZM493.494 403.525C493.494 377.068 472.225 355.8 445.769 355.8H354.988C328.531 355.8 307.263 377.068 307.263 403.525V746.419H492.975V403.525H493.494ZM724.338 756.275H69.1564C53.5939 756.275 40.6251 769.243 40.6251 784.806V785.325C40.6251 800.887 53.5939 813.856 69.1564 813.856H724.338C739.9 813.856 752.869 801.406 752.869 785.325V784.806C752.869 768.725 740.419 756.275 724.338 756.275ZM76.9376 731.893C76.9376 733.968 76.9377 736.562 77.4564 738.637C77.4564 739.156 77.4564 739.156 77.4564 739.675C77.4564 742.268 77.9751 744.862 77.9751 746.937H260.575V424.793C257.463 426.35 253.831 427.906 250.719 429.462C250.719 429.462 250.719 429.462 250.2 429.462C247.088 431.018 243.456 433.093 240.344 434.65C233.6 438.281 227.375 441.912 221.15 446.062C218.038 448.137 214.925 450.212 211.813 452.287C209.219 453.844 207.144 455.919 204.55 457.475C203.513 458.512 202.475 459.031 201.438 459.55C198.844 461.625 196.25 463.7 193.656 465.775C191.063 468.368 187.95 470.444 185.356 473.037C182.763 475.631 179.65 477.706 177.056 480.3C174.463 482.894 171.869 484.969 169.794 487.562C169.275 488.081 169.275 488.081 168.756 488.6C163.569 493.787 158.9 498.975 154.231 504.681C151.638 507.275 149.563 510.387 146.969 513.5C144.375 516.612 142.3 519.206 140.225 522.319C138.15 524.912 136.075 528.025 134 530.618C133.481 531.137 133.481 531.656 132.963 532.175C130.888 534.769 129.331 537.362 127.256 540.475C126.219 542.031 125.181 543.587 124.144 545.144C123.106 546.7 122.069 548.256 121.031 549.812C118.956 552.925 117.4 556.037 115.325 559.668C114.288 561.225 113.769 562.781 112.731 563.819C107.544 573.675 102.356 584.569 98.2064 594.944C97.6877 596.5 97.1689 597.537 96.6501 599.094C95.0939 603.762 93.0189 608.431 91.4626 613.1C90.9439 614.656 90.4251 616.731 89.9064 618.806C87.3126 627.106 84.7189 635.925 83.1626 644.743C82.6439 647.856 81.6064 650.969 81.0876 654.081C80.5689 656.675 80.0501 659.269 79.5314 661.862C79.0126 663.419 79.0126 665.494 78.4939 667.05C78.4939 667.569 78.4939 668.087 78.4939 668.606C77.9751 670.162 77.9751 671.718 77.9751 673.275C77.4564 675.868 77.4564 678.981 76.9376 681.575C76.9376 683.65 76.4188 685.725 76.4188 687.8C76.4188 688.319 76.4188 689.356 76.4188 689.875C76.4188 692.469 75.9001 694.543 75.9001 697.137C75.9001 699.731 75.9001 702.325 75.3814 704.918C75.3814 708.031 75.3814 710.625 75.3814 713.737C75.3814 717.369 75.3814 720.481 75.3814 724.112C76.9376 727.225 76.9376 729.3 76.9376 731.893Z" fill="url(#paint0_linear_286_14)"/>
<path d="M736.269 452.806H672.463V420.644H640.3V482.375V485.488H642.894H671.944V517.65H704.106V580.419V582.494H705.144H768.431V518.169H736.269V486.006H768.431V518.169H800.594V486.006V453.844H768.431V421.681H736.269V452.806ZM384.038 339.2H416.2V324.156H384.038V339.2ZM575.975 420.644H608.138V388.481H575.975V420.644ZM575.975 429.462V420.644H560.931C566.119 423.756 571.306 426.35 575.975 429.462ZM224.263 259.313H192.1V291.475H224.263V259.313ZM32.3251 420.644H0.162598V485.488V549.813H32.3251V484.969H64.4876V452.806H32.3251V420.644ZM352.394 323.638V291.475H320.231V323.638H352.394ZM224.263 427.906C228.413 425.313 232.044 423.238 236.194 420.644H224.263V427.906ZM224.263 227.15V194.988V0.975098H160.456H0.681379V194.988V227.15H160.456H224.263ZM32.3251 33.1375H160.456H192.619V194.469H160.456H32.3251V33.1375ZM64.4876 743.825H69.1564C68.1189 732.931 67.6001 721.519 67.6001 710.106C67.6001 706.475 67.6001 702.844 67.6001 699.212C67.6001 698.175 67.6001 697.138 67.6001 696.1C67.6001 692.988 68.1189 689.875 68.1189 686.763C68.1189 686.244 68.1189 685.725 68.1189 685.206C68.1189 681.575 68.6376 677.944 69.1564 674.313C69.1564 673.275 69.1564 672.756 69.1564 671.719C69.6751 668.606 70.1938 665.494 70.1938 662.9C70.1938 662.381 70.1938 661.344 70.1938 660.825C70.7126 657.194 71.2314 653.562 71.7501 650.45C71.7501 649.931 72.2689 648.894 72.2689 648.375C72.2689 647.856 72.2689 647.856 72.2689 647.337H63.4501V743.825H64.4876ZM64.4876 549.813H108.581C114.806 538.4 121.55 528.025 128.813 517.65H64.4876V549.813ZM575.975 0.975098V194.988V227.15H800.075V194.988V0.975098H575.975ZM767.913 194.469H608.138V33.1375H767.913V194.469ZM160.456 65.3001H64.4876V162.306H160.456V65.3001ZM0.162598 808.15H44.7751C36.4751 802.962 30.2501 793.625 30.2501 782.731V782.212C30.2501 779.1 30.7689 775.988 31.8064 772.875V614.138H80.5688C80.5688 613.619 80.5689 613.619 81.0876 613.1C83.1626 605.838 85.7563 599.094 88.3501 592.35C88.3501 591.831 88.8689 591.312 88.8689 590.794C89.9064 587.681 91.4626 584.569 92.5001 581.456H0.162598V808.15ZM671.944 521.8V517.65H668.831C669.869 519.206 670.906 520.763 671.944 521.8ZM736.269 711.663H730.563C730.563 725.669 729.525 739.675 727.45 753.163H738.863C752.869 753.163 764.8 763.019 767.394 775.987H768.431V808.15H800.594V678.981H736.788V711.663H736.269ZM800.075 646.819V581.975H767.913V646.819H800.075ZM448.363 259.313V227.15H416.2V194.988H384.038V291.994H416.2V259.313H448.363ZM288.069 194.469H255.906V259.313H288.069V291.475H320.231V226.631H288.069V194.469ZM320.231 162.306H288.069V194.469H320.231V162.306ZM512.169 130.144V194.988V227.15H544.331V194.988V33.6563H512.169V65.8188H480.006V130.663H512.169V130.144ZM608.138 259.313H575.975V291.475H608.138V259.313ZM448.363 194.469V226.631H480.525V194.469V129.625H448.363V194.469ZM416.2 162.306V130.144H384.038V65.3001H416.2V130.144H448.363V65.3001H480.525V33.1375H384.556V0.975098H256.425V33.1375H352.394V97.9813H320.231V162.306H352.394V194.469H384.556V162.306H416.2ZM320.231 227.15H352.394V194.988H320.231V227.15ZM512.169 259.313H448.363V291.475H416.2V323.638H480.006V349.575C491.419 358.394 498.163 372.4 498.163 387.962V393.15C502.831 394.706 507.5 396.263 511.65 397.819V355.8H543.813V323.638H511.65V259.313H512.169ZM544.331 291.475V323.638H576.494V291.475H544.331ZM736.269 65.3001H640.3V162.306H736.269V65.3001ZM160.456 452.806H128.294V387.962H64.4876V452.806H96.6501V484.969H154.75H159.938V479.263C169.794 468.888 180.688 459.031 192.1 450.212V420.644H159.938V452.806H160.456ZM288.069 65.3001V97.4625H320.231V65.3001H288.069ZM32.3251 356.319V324.156H64.4876V356.319H96.6501V291.475H64.4876V259.313H0.681379V388.481H64.4876V356.319H32.3251ZM128.294 356.319H160.456V324.156H192.619V291.994H160.456V259.313H96.6501V291.475H128.813V356.319H128.294ZM767.913 291.475H800.075V259.313H767.913V291.475ZM256.425 291.475H224.263V323.638H192.1V355.8H224.263V387.962H256.425V409.75C272.506 401.969 289.106 395.744 306.225 390.556V387.444H288.588V355.281H318.156H320.231V352.688V322.6H256.425V291.475ZM608.138 323.638H575.975V355.8H608.138V387.962H640.3V323.119H672.463V387.962H768.431V420.125H800.594V323.119H768.431V355.281H704.625V323.119H768.431V290.956H608.656V323.638H608.138ZM192.1 388.481V420.644H224.263V388.481H192.1ZM256.425 420.644V410.269C249.681 413.381 242.938 417.013 236.713 420.644H256.425Z" fill="#191919"/>
<path d="M1057.89 152.45C995.644 152.45 944.806 175.794 944.806 238.563V516.094C944.806 560.188 970.225 585.606 1008.09 595.981V662.382H1108.73V595.981C1146.08 585.606 1172.02 560.188 1172.02 516.094V238.563C1171.5 175.275 1121.18 152.45 1057.89 152.45ZM1071.38 489.119C1071.38 495.863 1065.68 502.088 1058.41 502.088C1051.67 502.088 1045.96 495.863 1045.96 489.119V265.538C1045.96 258.794 1051.67 252.569 1058.41 252.569C1065.68 252.569 1071.38 258.794 1071.38 265.538V489.119ZM1424.65 354.763V238.044C1424.65 175.794 1373.81 158.675 1311.04 158.675H1197.96V595.981H1298.59V454.882H1311.04C1318.31 454.882 1324.01 460.588 1324.01 467.85V595.981H1424.65V454.363C1424.65 431.019 1411.16 408.713 1399.23 404.563C1411.16 399.894 1424.65 378.106 1424.65 354.763ZM1324.01 341.275C1324.01 348.019 1318.31 354.244 1311.04 354.244H1298.59V259.313H1311.04C1318.31 259.313 1324.01 265.019 1324.01 272.281V341.275Z" fill="url(#paint1_linear_286_14)"/>
<path d="M1564.19 158.675H1451.11V595.981H1564.19C1627.48 595.981 1677.8 578.863 1677.8 516.094V427.388C1677.8 403.525 1664.31 381.738 1652.38 377.588C1664.31 373.438 1677.8 351.132 1677.8 327.788V238.563C1677.8 175.275 1626.96 158.675 1564.19 158.675ZM1577.16 482.375C1577.16 489.638 1571.46 495.344 1564.19 495.344H1551.74V427.388H1564.19C1571.46 427.388 1577.16 433.613 1577.16 440.356V482.375ZM1577.16 314.3C1577.16 321.044 1571.46 327.269 1564.19 327.269H1551.74V259.313H1564.19C1571.46 259.313 1577.16 265.019 1577.16 272.282V314.3ZM1830.31 489.119C1830.31 495.863 1824.61 502.088 1817.34 502.088C1810.6 502.088 1804.89 495.863 1804.89 489.119V158.675H1704.26V516.094C1704.26 578.344 1755.09 602.207 1817.34 602.207C1880.63 602.207 1930.95 578.344 1930.95 516.094V158.675H1830.31V489.119ZM1956.89 595.981H2057.53V158.675H1956.89V595.981ZM2183.58 158.675H2082.94V595.981H2248.94V495.344H2183.58V158.675ZM2387.97 158.675H2274.88V595.981H2387.97C2451.26 595.981 2501.58 572.119 2501.58 509.869V244.788C2501.58 182.538 2451.26 158.675 2387.97 158.675ZM2400.94 482.375C2400.94 489.638 2395.23 495.344 2387.97 495.344H2375.52V259.313H2387.97C2395.23 259.313 2400.94 265.019 2400.94 272.282V482.375ZM2528.03 595.981H2694.03V495.344H2628.67V427.388H2694.03V327.269H2628.67V259.313H2694.03V158.675H2528.03V595.981ZM2946.66 354.763V238.044C2946.66 175.794 2895.83 158.675 2833.06 158.675H2719.97V595.981H2820.61V454.882H2833.06C2840.32 454.882 2846.03 460.588 2846.03 467.85V595.981H2946.66V454.363C2946.66 431.019 2933.18 408.713 2921.24 404.563C2932.66 399.894 2946.66 378.106 2946.66 354.763ZM2846.03 341.275C2846.03 348.019 2840.32 354.244 2833.06 354.244H2820.61V259.313H2833.06C2840.32 259.313 2846.03 265.019 2846.03 272.282V341.275Z" fill="#191919"/>
<defs>
<linearGradient id="paint0_linear_286_14" x1="40.7309" y1="584.907" x2="752.975" y2="584.907" gradientUnits="userSpaceOnUse">
<stop stop-color="#E94E1B"/>
<stop offset="0.5213" stop-color="#E6332A"/>
<stop offset="1" stop-color="#D60B52"/>
</linearGradient>
<linearGradient id="paint1_linear_286_14" x1="944.995" y1="407.261" x2="1424.76" y2="407.261" gradientUnits="userSpaceOnUse">
<stop stop-color="#E94E1B"/>
<stop offset="0.5213" stop-color="#E6332A"/>
<stop offset="1" stop-color="#D60B52"/>
</linearGradient>
</defs>
</svg>
